<?xml version="1.0" encoding="utf-8"?>
<!-- Generator: Adobe Illustrator 24.0.0, SVG Export Plug-In . SVG Version: 6.00 Build 0)  -->
<svg version="1.1" xmlns="http://www.w3.org/2000/svg" xmlns:xlink="http://www.w3.org/1999/xlink" x="0px" y="0px"
	 viewBox="0 0 283.46 283.46" style="enable-background:new 0 0 283.46 283.46;" xml:space="preserve">
<style type="text/css">
	.st0{display:none;}
	.st1{display:inline;}
	.st2{fill:#FFFFFF;}
	.st3{display:inline;fill:none;stroke:#B6207D;stroke-miterlimit:10;}
</style>
<g id="Capa_2" class="st0">
</g>
<g id="Capa_1" class="st0">
	<g>
		<g class="st1">
			<path class="st2" d="M282.67,243.81c-94.37,0-188.72,0-283.04,0c0-65.34,0-130.66,0-195.95c94.37,0,188.72,0,283.04,0
				C282.67,113.2,282.67,178.52,282.67,243.81z M134.87,239.6c41.31,0,82.63,0.02,123.94-0.06c2.16,0,4.65-0.3,6.37-1.41
				c1.41-0.91,2.65-3.26,2.6-4.93c-0.04-1.45-1.73-3.32-3.18-4.14c-1.45-0.83-3.5-0.78-5.29-0.78c-11.58-0.06-23.17-0.16-34.75,0.06
				c-3.61,0.07-4.73-1.35-4.7-4.62c0.06-6.98,0.13-13.96-0.03-20.94c-0.08-3.28,1.18-4.64,4.41-5.29
				c16.54-3.31,30.86-10.2,42.02-23.65c9.36-11.28,13.67-24.18,13.51-38.12c-0.2-17.35-7.28-32.31-20.38-44.2
				c-1.91-1.73-3.43-4.51-3.93-7.05c-1.9-9.52-7.13-17.33-14.29-22.93c-15.02-11.75-31.69-13.36-48.85-4.24
				c-11.28,5.99-17.67,15.75-21.13,27.79c-0.63,2.18-1.84,4.33-3.26,6.13c-4.11,5.23-8.99,9.93-12.6,15.47
				c-6.73,10.33-8.61,22.08-8,34.24c0.48,9.5,3.61,18.21,8.67,26.21c5.57,8.81,12.34,16.37,21.7,21.47
				c8.3,4.52,17.1,7.33,26.28,9.19c2.24,0.45,3.82,1.1,3.78,3.97c-0.12,7.95,0.11,15.91-0.04,23.85c-0.02,0.94-1.61,2.64-2.49,2.64
				c-16.46,0.14-32.93,0.13-49.39-0.07c-1.05-0.01-2.82-1.72-2.97-2.81c-0.42-3.16-0.1-6.4-0.22-9.61
				c-0.12-3.13,0.56-4.96,4.38-4.87c1.71,0.04,4.13-1.22,5.08-2.65c2.05-3.11,0.71-6.63-3.04-7.32c-5.25-0.96-6.44-3.48-6.71-8.65
				c-0.45-8.66-4.01-16.31-12.79-19.78c-3.82-1.51-8.08-2.6-12.15-2.63c-25.68-0.23-51.36-0.2-77.04,0
				c-4.1,0.03-8.55,0.55-12.21,2.21c-8.77,3.99-13.41,11.52-14.02,21c-0.28,4.32-1.25,6.16-5.85,6.36c-4.02,0.17-6.3,3.41-5.6,6.82
				c0.75,3.65,2.97,5.48,6.94,4.88c3.49-0.53,4.46,1.14,4.39,4.6c-0.25,12.6-0.12,12.6-12.46,12.48c-7.1-0.07-9.18,1.19-9.26,5.58
				c-0.08,4.42,2.02,5.77,9.06,5.77C52.53,239.6,93.7,239.59,134.87,239.6z"/>
			<path d="M134.87,239.6c-41.17,0-82.35,0-123.52,0c-7.04,0-9.14-1.35-9.06-5.77c0.08-4.39,2.16-5.64,9.26-5.58
				c12.35,0.12,12.22,0.11,12.46-12.48c0.07-3.47-0.9-5.13-4.39-4.6c-3.97,0.6-6.18-1.22-6.94-4.88c-0.7-3.41,1.58-6.65,5.6-6.82
				c4.6-0.19,5.57-2.03,5.85-6.36c0.61-9.48,5.24-17.01,14.02-21c3.66-1.67,8.11-2.18,12.21-2.21c25.68-0.2,51.36-0.22,77.04,0
				c4.07,0.04,8.33,1.13,12.15,2.63c8.79,3.47,12.35,11.12,12.79,19.78c0.27,5.17,1.45,7.68,6.71,8.65c3.75,0.69,5.08,4.2,3.04,7.32
				c-0.94,1.43-3.36,2.7-5.08,2.65c-3.82-0.1-4.5,1.74-4.38,4.87c0.13,3.21-0.2,6.45,0.22,9.61c0.15,1.09,1.92,2.8,2.97,2.81
				c16.46,0.2,32.93,0.21,49.39,0.07c0.87-0.01,2.47-1.71,2.49-2.64c0.16-7.95-0.08-15.9,0.04-23.85c0.04-2.87-1.54-3.52-3.78-3.97
				c-9.18-1.86-17.98-4.68-26.28-9.19c-9.37-5.1-16.13-12.66-21.7-21.47c-5.06-8-8.19-16.71-8.67-26.21
				c-0.62-12.16,1.27-23.91,8-34.24c3.61-5.54,8.49-10.24,12.6-15.47c1.41-1.8,2.63-3.95,3.26-6.13
				c3.45-12.04,9.85-21.79,21.13-27.79c17.16-9.12,33.83-7.51,48.85,4.24c7.16,5.6,12.39,13.42,14.29,22.93
				c0.51,2.53,2.03,5.32,3.93,7.05c13.09,11.89,20.18,26.84,20.38,44.2c0.16,13.94-4.15,26.84-13.51,38.12
				c-11.16,13.45-25.48,20.34-42.02,23.65c-3.23,0.65-4.49,2.01-4.41,5.29c0.16,6.98,0.09,13.96,0.03,20.94
				c-0.03,3.27,1.1,4.69,4.7,4.62c11.58-0.22,23.17-0.12,34.75-0.06c1.79,0.01,3.85-0.04,5.29,0.78c1.45,0.82,3.13,2.69,3.18,4.14
				c0.05,1.67-1.18,4.02-2.6,4.93c-1.72,1.11-4.21,1.4-6.37,1.41C217.5,239.62,176.19,239.6,134.87,239.6z M88.58,228.25
				c0,0.02,0,0.05,0,0.07c16.16,0,32.33-0.07,48.49,0.07c2.71,0.02,3.47-1.13,3.48-3.43c0.01-3.34-0.04-6.69,0.02-10.03
				c0.05-2.79-1.04-3.88-3.99-3.87c-31.77,0.09-63.55,0.08-95.32,0.03c-3.4-0.01-5.33,0.87-4.88,4.77c0.28,2.48,0.32,5.05-0.01,7.51
				c-0.54,4.07,1.31,4.98,4.97,4.95C57.08,228.18,72.83,228.25,88.58,228.25z M206.99,128.91c-0.48-0.23-0.79-0.29-0.96-0.47
				c-3.01-3.17-7.64-4.04-9.86-1.82c-2.26,2.25-1.61,6.38,1.55,9.71c2.5,2.63,5.27,5.04,7.45,7.91c1.3,1.72,2.33,4.11,2.38,6.22
				c0.22,9.76-0.01,19.53,0.05,29.3c0.02,4.15,3.03,7.28,6.59,7.22c3.23-0.05,5.95-3.36,6-7.31c0.01-1.26,0.06-2.52-0.08-3.76
				c-0.38-3.32,0.75-5.85,3.23-8.15c4.39-4.07,8.57-8.38,12.73-12.69c2.84-2.95,3.23-7.13,1.1-9.31c-3.35-3.43-5.35-3.32-9.5,0.63
				c-2.16,2.06-4.22,4.21-7.23,7.24c-0.17-2.66-0.33-3.97-0.33-5.28c0-6.28,0.51-12.61-0.15-18.81c-0.26-2.49-2.53-5.67-4.77-6.84
				c-2.91-1.52-5.45,0.88-6.94,3.73C207.83,127.26,207.42,128.09,206.99,128.91z"/>
			<path class="st2" d="M88.58,228.25c-15.75,0-31.49-0.08-47.24,0.06c-3.67,0.03-5.51-0.87-4.97-4.95
				c0.33-2.47,0.29-5.04,0.01-7.51c-0.44-3.9,1.48-4.77,4.88-4.77c31.77,0.05,63.55,0.06,95.32-0.03c2.95-0.01,4.05,1.08,3.99,3.87
				c-0.06,3.34-0.01,6.69-0.02,10.03c-0.01,2.3-0.76,3.45-3.48,3.43c-16.16-0.13-32.33-0.07-48.49-0.07
				C88.58,228.3,88.58,228.27,88.58,228.25z"/>
			<path class="st2" d="M206.99,128.91c0.42-0.83,0.83-1.66,1.26-2.48c1.49-2.85,4.03-5.26,6.94-3.73c2.24,1.17,4.51,4.34,4.77,6.84
				c0.65,6.21,0.15,12.54,0.15,18.81c0,1.31,0.16,2.62,0.33,5.28c3.01-3.03,5.07-5.18,7.23-7.24c4.15-3.96,6.15-4.06,9.5-0.63
				c2.13,2.18,1.74,6.36-1.1,9.31c-4.16,4.31-8.34,8.62-12.73,12.69c-2.48,2.3-3.61,4.83-3.23,8.15c0.14,1.24,0.09,2.51,0.08,3.76
				c-0.05,3.95-2.77,7.25-6,7.31c-3.56,0.06-6.56-3.07-6.59-7.22c-0.06-9.77,0.17-19.54-0.05-29.3c-0.05-2.11-1.08-4.51-2.38-6.22
				c-2.18-2.87-4.95-5.28-7.45-7.91c-3.16-3.33-3.81-7.46-1.55-9.71c2.23-2.22,6.86-1.35,9.86,1.82
				C206.21,128.63,206.52,128.69,206.99,128.91z"/>
		</g>
	</g>
</g>
<g id="Capa_3" class="st0">
	<path class="st3" d="M207.93,224.71c0.49-13.03,0.49-22.57,0-24.12c-0.29-0.92-0.9-1.49-0.9-1.49c-0.81-0.76-1.85-0.86-2.13-0.9
		c-5.88-0.69-11.33-3.43-17.07-4.86c-6.17-1.54-10.29-4.39-15.55-8.01c-8.67-5.97-18.75-17.25-22.95-32.97
		c-0.39-1.46-6.64-26.54,6.52-45.67c4.87-7.08,9.41-9,15.38-19.86c5.48-9.97,3.78-12.23,7.81-18.23
		c7.16-10.67,21.58-17.06,35.53-16.72c11.35,0.28,26.52,5.12,33.12,16.43c3.88,6.66,2.36,11.4,8.65,20.45
		c4.26,6.13,6.32,5.91,10.92,11.71c8,10.08,9.99,21.1,10.81,25.92c2.5,14.8-1.07,26.39-2.33,30.06
		c-2.34,6.84-7.08,20.66-19.57,27.73c-6.83,3.86-27.23,12.06-32.5,13.34c-0.46,0.11-2.05,0.47-3.15,1.81
		c-1.11,1.35-1.15,3.01-1.17,3.9c-0.09,6.56,0.15,13.13,0.12,19.69c-0.01,1.38-0.06,3.83,1.51,5.07c0.92,0.72,2.02,0.75,2.5,0.76
		c23.06,0.27,34.59,0.4,37.4,0c0.14-0.02,0.67-0.1,1.36,0c1.68,0.24,4.35,1.54,4.87,4.31c0.53,2.81-1.48,5.31-3.61,6.06
		c-0.95,0.33-1.79,0.27-2.04,0.24c-0.03,0-0.05-0.01-0.05-0.01c-1.48-0.18-251.58,0-255.1-0.07c-0.69-0.01-1.17-0.23-1.4-0.35
		c-1.84-0.98-2.29-3.8-2.14-5.64c0.06-0.75,0.24-2.95,1.79-3.93c0.69-0.44,1.41-0.47,1.79-0.48c3.21-0.1,9.25,0.16,12.93-0.17
		c0.72-0.07,2.07-0.22,2.97-1.22c0.59-0.66,0.75-1.41,0.83-1.83c0.95-4.87,0.41-6.97,0.74-11.53c0.06-0.87,0.18-2.1-0.57-2.75
		c-0.32-0.28-0.66-0.33-2.23-0.39c-2.73-0.1-3.08,0.02-4.02-0.22c-0.83-0.21-1.78-0.44-2.45-1.25c-0.68-0.82-0.69-1.81-0.7-3.78
		c-0.01-2.01-0.02-3.01,0.68-4c0.7-1,1.7-1.41,2.05-1.55c1.37-0.55,1.9-0.02,4.35-0.44c1.15-0.19,1.8-0.36,2.32-0.87
		c0.52-0.52,0.73-1.2,0.74-1.25c0.14-0.47,0.12-0.85,0.12-0.99c-0.1-2.43-0.04-10.43,0.03-13.34c0.02-0.98,0.04-1.19,0.06-1.31
		c0.48-4.24,3.61-7.01,4.14-7.46c3.02-2.59,6.39-2.9,7.81-3.03c1.41-0.13,2.49-0.02,2.74,0c7.42,0.67,87.12-1.03,99.03,0.12
		c0.88,0.08,2.94,0.33,5.36,1.28c1.26,0.49,3.34,1.34,5.36,3.32c0,0,1.8,1.76,3.16,4.73c0.41,0.9,0.49,1.59,0.51,1.8
		c0.03,0.36,0.02,0.63,0.01,0.74c-0.1,2.13,0.05,6.95-0.04,10.33c-0.01,0.2-0.02,0.83-0.01,1.67c0,0.32,0.01,0.74,0.02,0.92
		c0.01,0.3,0.11,2.39,1.19,3.26c0.61,0.49,1.07,0.16,3.39,0.31c1.97,0.13,2.98,0.18,3.47,0.46c2.29,1.28,2.34,4.85,2.34,5
		c0,1.98-0.9,4.54-2.67,5.2c-0.21,0.08-0.91,0.08-2.29,0.09c-2.47,0.01-3.02-0.11-3.89,0.31c-0.26,0.13-1.3,0.61-1.52,1.54
		c-0.04,0.16-0.04,0.29-0.04,0.35c-0.09,4.48,0.02,8.44,0,11c0,0.66-0.02,0.85,0.06,1.18c0.64,2.6,4.54,3.59,4.75,3.64
		c0.96,0.23,1.72,0.23,1.82,0.23c27.92-0.01,41.88-0.02,42.46,0.04c0.31,0.03,2.13,0.23,3.99-0.61c0.86-0.39,1.3-0.81,1.54-1.08
		C207.74,226.32,207.89,225.2,207.93,224.71z"/>
</g>
<g id="Capa_4" class="st0">
	<path class="st3" d="M138.03,228.73H38.77c-2.03,0-3.67-1.64-3.67-3.67v-10.83c0-2.03,1.64-3.67,3.67-3.67h99.26
		c2.03,0,3.67,1.64,3.67,3.67v10.83C141.7,227.09,140.06,228.73,138.03,228.73z"/>
	<path class="st3" d="M207.35,149.1c0.38,6.72-0.41,24.79,0.1,31.31c0.03,0.43,0.13,1.55,0.79,2.75c0.17,0.32,2.07,3.68,5.64,3.67
		c3.56-0.01,5.45-3.36,5.59-3.63c0.54-0.99,0.64-2.46,0.84-5.4c0.23-3.32,0-4.61,0.78-6.74c0.14-0.38,0.48-1.25,1.3-2.5
		c3.91-5.99,12.98-11.84,16.08-18.17c0.24-0.48,0.73-1.56,0.52-2.85c-0.32-2.05-2.26-3.85-4.37-4.25c-0.32-0.06-1.37-0.23-2.8,0.23
		c-3.55,1.16-5.96,5.16-10.14,9.96c-0.27,0.31-0.78,0.88-1.17,0.76c-0.76-0.25-0.35-3.04-0.35-4.19c0,0,0.99-15,0.12-24.12
		c-0.09-0.92-0.29-2.74-1.63-4.19c-1.99-2.16-5.03-1.94-5.18-1.92c-1.89,0.17-4.09,1.22-4.89,3.03c-0.28,0.64-0.34,1.67-0.47,3.73
		c-0.15,2.46,0.01,3.01-0.35,3.2c-0.89,0.48-2.38-2.36-6.06-3.79c-1.2-0.47-2.65-1.03-4.25-0.52c-2.07,0.65-3.55,2.8-3.73,4.89
		c-0.16,1.88,0.77,3.3,1.69,4.66c1.06,1.56,1.86,2.09,5.3,4.89c4.3,3.51,5.51,4.7,6.17,6.64
		C207.25,147.59,207.31,148.45,207.35,149.1z"/>
</g>
<g id="Solido">
	<g id="Capa_3_copia" class="st0">
	</g>
	<g id="Capa_4_copia">
		<path d="M220.51,199.31c1.1-1.33,2.68-1.69,3.15-1.81c5.27-1.28,25.67-9.48,32.5-13.34c12.5-7.06,17.23-20.89,19.57-27.73
			c1.26-3.67,4.83-15.26,2.33-30.06c-0.81-4.83-2.8-15.84-10.81-25.92c-4.6-5.79-6.66-5.58-10.92-11.71
			c-6.29-9.05-4.77-13.79-8.65-20.45c-6.59-11.31-21.77-16.15-33.12-16.43c-13.96-0.35-28.38,6.04-35.53,16.72
			c-4.03,6-2.33,8.26-7.81,18.23c-5.97,10.87-10.51,12.79-15.38,19.86c-13.16,19.13-6.92,44.21-6.52,45.67
			c4.2,15.72,14.29,27,22.95,32.97c5.26,3.62,9.39,6.47,15.55,8.01c5.74,1.44,11.19,4.18,17.07,4.86c0.28,0.03,1.32,0.13,2.13,0.9
			c0,0,0.6,0.56,0.9,1.49c0.49,1.56,0.49,11.09,0,24.12c-0.04,0.49-0.2,1.61-1.05,2.56c-0.24,0.27-0.68,0.69-1.54,1.08
			c-1.86,0.84-3.68,0.64-3.99,0.61c-0.58-0.06-14.54-0.05-42.46-0.04c-0.11,0-0.86,0-1.82-0.23c-0.22-0.05-4.11-1.03-4.75-3.64
			c-0.08-0.33-0.06-0.52-0.06-1.18c0.02-2.56-0.09-6.51,0-11c0-0.06,0-0.19,0.04-0.35c0.22-0.93,1.26-1.42,1.52-1.54
			c0.87-0.41,1.42-0.3,3.89-0.31c1.39,0,2.08-0.01,2.29-0.09c1.76-0.66,2.66-3.22,2.67-5.2c0-0.16-0.04-3.72-2.34-5
			c-0.5-0.28-1.5-0.33-3.47-0.46c-2.33-0.15-2.78,0.19-3.39-0.31c-1.08-0.87-1.18-2.96-1.19-3.26c-0.01-0.18-0.02-0.6-0.02-0.92
			c-0.01-0.85,0.01-1.47,0.01-1.67c0.09-3.38-0.06-8.2,0.04-10.33c0-0.1,0.02-0.38-0.01-0.74c-0.02-0.21-0.1-0.9-0.51-1.8
			c-1.36-2.96-3.16-4.73-3.16-4.73c-2.02-1.98-4.1-2.83-5.36-3.32c-2.42-0.95-4.48-1.2-5.36-1.28c-11.91-1.15-91.61,0.56-99.03-0.12
			c-0.25-0.02-1.32-0.13-2.74,0c-1.42,0.13-4.79,0.44-7.81,3.03c-0.52,0.45-3.66,3.22-4.14,7.46c-0.01,0.12-0.03,0.33-0.06,1.31
			c-0.07,2.91-0.12,10.91-0.03,13.34c0.01,0.14,0.02,0.52-0.12,0.99c-0.01,0.05-0.22,0.73-0.74,1.25c-0.51,0.52-1.17,0.68-2.32,0.87
			c-2.44,0.41-2.97-0.11-4.35,0.44c-0.35,0.14-1.35,0.56-2.05,1.55c-0.69,0.99-0.69,1.99-0.68,4c0.01,1.97,0.02,2.96,0.7,3.78
			c0.67,0.8,1.62,1.04,2.45,1.25c0.93,0.23,1.29,0.11,4.02,0.22c1.57,0.06,1.91,0.12,2.23,0.39c0.75,0.65,0.63,1.88,0.57,2.75
			c-0.34,4.57,0.21,6.67-0.74,11.53c-0.08,0.42-0.24,1.18-0.83,1.83c-0.9,1-2.25,1.16-2.97,1.22c-3.69,0.34-9.72,0.08-12.93,0.17
			c-0.39,0.01-1.1,0.04-1.79,0.48c-1.55,0.98-1.73,3.18-1.79,3.93c-0.15,1.83,0.3,4.66,2.14,5.64c0.23,0.12,0.71,0.34,1.4,0.35
			c3.52,0.07,253.62-0.11,255.1,0.07c0,0,0.02,0,0.05,0.01c0.26,0.03,1.1,0.09,2.04-0.24c2.13-0.75,4.14-3.25,3.61-6.06
			c-0.53-2.78-3.19-4.07-4.87-4.31c-0.68-0.1-1.22-0.02-1.36,0c-2.81,0.4-14.34,0.27-37.4,0c-0.48-0.01-1.59-0.03-2.5-0.76
			c-1.57-1.24-1.52-3.69-1.51-5.07c0.04-6.56-0.2-13.13-0.12-19.69C219.36,202.32,219.41,200.66,220.51,199.31z M141.7,225.06
			c0,2.03-1.64,3.67-3.67,3.67H38.77c-2.03,0-3.67-1.64-3.67-3.67v-10.83c0-2.03,1.64-3.67,3.67-3.67h99.26
			c2.03,0,3.67,1.64,3.67,3.67V225.06z M213.87,186.83c-3.57,0.01-5.46-3.35-5.64-3.67c-0.65-1.2-0.75-2.32-0.79-2.75
			c-0.52-6.52,0.28-24.59-0.1-31.31c-0.04-0.64-0.1-1.51-0.47-2.56c-0.67-1.94-1.88-3.13-6.17-6.64c-3.44-2.81-4.24-3.33-5.3-4.89
			c-0.92-1.36-1.85-2.78-1.69-4.66c0.18-2.1,1.65-4.24,3.73-4.89c1.61-0.5,3.05,0.06,4.25,0.52c3.67,1.43,5.17,4.27,6.06,3.79
			c0.36-0.2,0.2-0.75,0.35-3.2c0.12-2.06,0.18-3.09,0.47-3.73c0.8-1.81,3.01-2.86,4.89-3.03c0.15-0.01,3.19-0.24,5.18,1.92
			c1.34,1.46,1.54,3.28,1.63,4.19c0.87,9.11-0.12,24.12-0.12,24.12c0,1.15-0.41,3.94,0.35,4.19c0.39,0.13,0.9-0.45,1.17-0.76
			c4.18-4.8,6.59-8.8,10.14-9.96c1.42-0.46,2.48-0.29,2.8-0.23c2.1,0.4,4.05,2.21,4.37,4.25c0.2,1.29-0.29,2.37-0.52,2.85
			c-3.09,6.33-12.17,12.19-16.08,18.17c-0.82,1.25-1.16,2.12-1.3,2.5c-0.78,2.14-0.55,3.43-0.78,6.74c-0.2,2.94-0.3,4.41-0.84,5.4
			C219.32,183.47,217.44,186.82,213.87,186.83z"/>
	</g>
</g>
</svg>
